Coordinates
version=1
nRows=41
nColumns=38
inDegrees=no

Units are S.I. units (second, meters, Newtons, ...)
If the header above contains a line with 'inDegrees', this indicates whether rotational values are in degrees (yes) or radians (no).

endheader
time	pelvis_tilt	pelvis_list	pelvis_rotation	pelvis_tx	pelvis_ty	pelvis_tz	hip_flexion_r	hip_adduction_r	hip_rotation_r	knee_angle_r	ankle_angle_r	subtalar_angle_r	mtp_angle_r	hip_flexion_l	hip_adduction_l	hip_rotation_l	knee_angle_l	ankle_angle_l	subtalar_angle_l	mtp_angle_l	lumbar_extension	lumbar_bending	lumbar_rotation	arm_flex_r	arm_add_r	arm_rot_r	elbow_flex_r	pro_sup_r	wrist_flex_r	wrist_dev_r	arm_flex_l	arm_add_l	arm_rot_l	elbow_flex_l	pro_sup_l	wrist_flex_l	wrist_dev_l
0.68	1.7059	1.44104	-0.283009	0.503093	0.258625	0.952983	0.0620954	0.221207	0.0208452	0.198609	-0.0231357	0	0	0.537612	-0.236501	-0.0176	1.4541	0.0547881	0	0	-0.113196	0.108685	0.0584731	-0.328876	-0.099665	-0.410124	0.730767	0.831469	0	0	-0.130146	-0.355127	0.492861	0.651661	0.650377	0	0
0.69	1.73146	1.4426	-0.319547	0.504161	0.266572	0.95373	0.0448858	0.218581	0.0363854	0.193115	-0.0198464	0	0	0.547947	-0.237962	-0.0238047	1.43045	0.0577939	0	0	-0.120041	0.106401	0.0658361	-0.32784	-0.101714	-0.408809	0.738033	0.833234	0	0	-0.131269	-0.352633	0.488301	0.64857	0.653261	0	0
0.7	1.75733	1.44073	-0.356649	0.505431	0.274969	0.954253	0.0259783	0.219243	0.0495479	0.187775	-0.016017	0	0	0.557699	-0.259426	-0.0483024	1.40692	0.0575141	0	0	-0.126656	0.107364	0.0733967	-0.32809	-0.104215	-0.407444	0.745964	0.834204	0	0	-0.13385	-0.351629	0.488484	0.648516	0.649135	0	0
0.71	1.76344	1.44424	-0.369011	0.505987	0.282589	0.95467	0.015411	0.214315	0.0574358	0.185917	-0.0112589	0	0	0.567618	-0.246025	-0.0388861	1.37251	0.0601494	0	0	-0.129885	0.103635	0.074672	-0.324001	-0.105891	-0.405421	0.748925	0.834607	0	0	-0.134417	-0.350194	0.486301	0.64522	0.648304	0	0
0.72	1.77568	1.44578	-0.388679	0.506802	0.290524	0.955043	0.00200177	0.21119	0.0673172	0.182314	-0.00768945	0	0	0.574153	-0.24921	-0.0478279	1.33572	0.0600144	0	0	-0.134129	0.101345	0.077215	-0.321089	-0.107754	-0.403001	0.753268	0.835324	0	0	-0.135836	-0.349016	0.484335	0.642407	0.64842	0	0
0.73	1.78965	1.44686	-0.410878	0.507729	0.29851	0.95538	-0.0121358	0.208338	0.0790365	0.178148	-0.00472549	0	0	0.577481	-0.259666	-0.0673355	1.29517	0.0595048	0	0	-0.138845	0.099324	0.0813482	-0.319085	-0.109342	-0.401144	0.758802	0.836372	0	0	-0.136408	-0.348345	0.485644	0.639063	0.650064	0	0
0.74	1.7792	1.44966	-0.405923	0.508342	0.306277	0.955365	-0.0204827	0.204743	0.0867025	0.176575	-0.000524171	0	0	0.583283	-0.254972	-0.0684635	1.25019	0.0612636	0	0	-0.138744	0.0967716	0.0794581	-0.314184	-0.111673	-0.395585	0.760131	0.836869	0	0	-0.139248	-0.347543	0.483157	0.636354	0.650902	0	0
0.75	1.78387	1.4509	-0.417144	0.509102	0.314213	0.955402	-0.0328429	0.201878	0.0960867	0.173195	0.00371275	0	0	0.583482	-0.26328	-0.0883495	1.20231	0.0642396	0	0	-0.143162	0.0951711	0.0834662	-0.312933	-0.11203	-0.396306	0.766789	0.835991	0	0	-0.138185	-0.345778	0.480053	0.631908	0.665957	0	0
0.76	1.77225	1.45318	-0.410339	0.509692	0.322037	0.955242	-0.0423504	0.198574	0.104341	0.169653	0.00784539	0	0	0.583841	-0.258307	-0.0912442	1.1494	0.071096	0	0	-0.143671	0.0930164	0.0822915	-0.308263	-0.113072	-0.3938	0.76792	0.842633	0	0	-0.139395	-0.346528	0.483793	0.630166	0.655218	0	0
0.77	1.76292	1.45395	-0.405622	0.510361	0.330153	0.955056	-0.0534213	0.19647	0.110535	0.165524	0.0120478	0	0	0.581473	-0.269644	-0.118999	1.09592	0.0794114	0	0	-0.145391	0.0923796	0.0827657	-0.305708	-0.113886	-0.391523	0.77119	0.841093	0	0	-0.140081	-0.345874	0.482317	0.627624	0.658494	0	0
0.78	1.75412	1.45501	-0.401301	0.510951	0.338243	0.954829	-0.0644912	0.193769	0.117334	0.161103	0.0164302	0	0	0.576208	-0.273585	-0.139508	1.03789	0.0900574	0	0	-0.14741	0.0914686	0.0838327	-0.303117	-0.114284	-0.390628	0.774362	0.844243	0	0	-0.139448	-0.346203	0.486538	0.62481	0.656065	0	0
0.79	1.7339	1.456	-0.384623	0.511429	0.346385	0.954385	-0.0734257	0.19152	0.122305	0.158086	0.0213404	0	0	0.570566	-0.27735	-0.162159	0.976907	0.100231	0	0	-0.148007	0.0913108	0.0838297	-0.300832	-0.114827	-0.389129	0.777888	0.844457	0	0	-0.139761	-0.34613	0.48753	0.622782	0.657201	0	0
0.8	1.70962	1.45681	-0.363357	0.511822	0.354614	0.953802	-0.0817818	0.189418	0.126588	0.155594	0.0264783	0	0	0.563295	-0.280857	-0.188115	0.912802	0.108956	0	0	-0.148103	0.0915182	0.0832323	-0.298684	-0.115277	-0.387852	0.781771	0.844292	0	0	-0.140452	-0.34583	0.487105	0.621185	0.658383	0	0
0.81	1.68049	1.45754	-0.336777	0.512072	0.362958	0.953074	-0.0893038	0.187247	0.129332	0.153585	0.0323604	0	0	0.555232	-0.28382	-0.217272	0.847152	0.115517	0	0	-0.14759	0.0921791	0.0822896	-0.296828	-0.115829	-0.386894	0.785941	0.844206	0	0	-0.140956	-0.344927	0.485945	0.619414	0.659693	0	0
0.82	1.64536	1.45838	-0.303825	0.512144	0.371433	0.952184	-0.0954495	0.184775	0.130357	0.152812	0.0394381	0	0	0.547318	-0.285894	-0.249541	0.781439	0.120615	0	0	-0.146194	0.0930902	0.0812497	-0.295284	-0.116682	-0.386103	0.790144	0.844309	0	0	-0.141395	-0.343653	0.484853	0.617659	0.661559	0	0
0.83	1.59929	1.45898	-0.259077	0.512016	0.380023	0.951085	-0.0999919	0.182631	0.130594	0.152969	0.0464216	0	0	0.541406	-0.287252	-0.283683	0.717901	0.125439	0	0	-0.143305	0.0947688	0.0795395	-0.294145	-0.11812	-0.384826	0.794193	0.844364	0	0	-0.142206	-0.342197	0.48458	0.615226	0.664213	0	0
0.84	1.55139	1.45997	-0.211937	0.511721	0.38873	0.949923	-0.103709	0.179678	0.129717	0.154132	0.0539196	0	0	0.536067	-0.28677	-0.319659	0.656742	0.129716	0	0	-0.139769	0.0958832	0.0768951	-0.292652	-0.119921	-0.382474	0.796941	0.843019	0	0	-0.143346	-0.340298	0.482967	0.612169	0.669607	0	0
0.85	1.49889	1.46091	-0.159698	0.511251	0.397575	0.94864	-0.106042	0.176379	0.127384	0.157028	0.0621811	0	0	0.532154	-0.28481	-0.355665	0.599396	0.134462	0	0	-0.135641	0.0969831	0.0740055	-0.291299	-0.12147	-0.381849	0.799786	0.843877	0	0	-0.14409	-0.338991	0.485251	0.609967	0.664572	0	0
0.86	1.44524	1.46241	-0.105904	0.510561	0.406558	0.94733	-0.107348	0.171865	0.123579	0.161742	0.07101	0	0	0.528879	-0.280074	-0.389961	0.545208	0.139889	0	0	-0.13129	0.0972219	0.0707086	-0.289719	-0.123317	-0.380711	0.801906	0.842919	0	0	-0.144459	-0.337066	0.486861	0.606431	0.661244	0	0
0.87	1.39276	1.46495	-0.0521202	0.509608	0.415656	0.946104	-0.107342	0.165634	0.116961	0.169399	0.0814137	0	0	0.525099	-0.270761	-0.418729	0.492113	0.144919	0	0	-0.127043	0.0958939	0.0660327	-0.286934	-0.125308	-0.378172	0.801676	0.836463	0	0	-0.144137	-0.335288	0.490758	0.601364	0.653561	0	0
0.88	1.3409	1.46924	0.00226018	0.508401	0.424901	0.94502	-0.106332	0.156956	0.107536	0.179771	0.0931485	0	0	0.518952	-0.254889	-0.438535	0.436238	0.148683	0	0	-0.122923	0.0922041	0.0601261	-0.283226	-0.126914	-0.375957	0.799089	0.834601	0	0	-0.142943	-0.332968	0.49458	0.59293	0.651944	0	0
0.89	1.29113	1.47422	0.0550143	0.507113	0.434265	0.94409	-0.106252	0.147285	0.0985403	0.189979	0.103855	0	0	0.510448	-0.235071	-0.44742	0.378896	0.151816	0	0	-0.118909	0.0872535	0.0536473	-0.279138	-0.128147	-0.373749	0.794856	0.832796	0	0	-0.14152	-0.330777	0.499118	0.583602	0.650703	0	0
0.9	1.24581	1.48062	0.103065	0.505789	0.443827	0.943361	-0.107217	0.135726	0.0889678	0.200877	0.114623	0	0	0.497202	-0.210145	-0.440569	0.316123	0.151156	0	0	-0.115711	0.0802926	0.0474694	-0.274952	-0.128803	-0.372113	0.789384	0.831003	0	0	-0.139853	-0.328651	0.503801	0.573372	0.649924	0	0
0.91	1.19634	1.48676	0.154082	0.50464	0.453587	0.942648	-0.108212	0.124343	0.0804775	0.212736	0.124774	0	0	0.481602	-0.184784	-0.418581	0.2529	0.145856	0	0	-0.112425	0.073057	0.0430562	-0.271771	-0.129009	-0.371204	0.784286	0.829017	0	0	-0.138349	-0.326666	0.508804	0.563087	0.650045	0	0
0.92	1.13955	1.49059	0.211392	0.503821	0.463586	0.941788	-0.108858	0.115693	0.0738687	0.225222	0.13377	0	0	0.469345	-0.165437	-0.391624	0.201967	0.139549	0	0	-0.107758	0.0675929	0.0405416	-0.270292	-0.12907	-0.37061	0.779488	0.826826	0	0	-0.137577	-0.324817	0.513611	0.553106	0.652039	0	0
0.93	1.08398	1.49157	0.26671	0.503346	0.473751	0.940779	-0.109833	0.110723	0.0703022	0.237168	0.140555	0	0	0.465298	-0.15553	-0.372149	0.17516	0.136986	0	0	-0.102271	0.0645562	0.0398219	-0.270623	-0.129035	-0.370344	0.775807	0.824369	0	0	-0.137869	-0.323162	0.516107	0.544778	0.656689	0	0
0.94	1.0469	1.4936	0.302683	0.502995	0.484162	0.939909	-0.111916	0.104713	0.0645652	0.251462	0.148178	0	0	0.460367	-0.147023	-0.351667	0.157545	0.130016	0	0	-0.0981643	0.0604325	0.0416112	-0.272418	-0.127756	-0.37408	0.772419	0.829707	0	0	-0.136787	-0.327172	0.54329	0.543052	0.616228	0	0
0.95	1.01939	1.49378	0.328504	0.502863	0.494724	0.938964	-0.114091	0.101095	0.0605775	0.26632	0.154029	0	0	0.465549	-0.14721	-0.348786	0.169266	0.12988	0	0	-0.0942582	0.0583042	0.0441842	-0.275785	-0.127176	-0.375746	0.77115	0.829144	0	0	-0.137687	-0.327148	0.549657	0.538343	0.613075	0	0
0.96	1.00379	1.49464	0.340978	0.50292	0.505502	0.938131	-0.116313	0.0966576	0.0556892	0.283895	0.159766	0	0	0.470714	-0.148898	-0.348669	0.190528	0.127765	0	0	-0.0912687	0.0556056	0.0488977	-0.280113	-0.126197	-0.378257	0.770164	0.827934	0	0	-0.138752	-0.327764	0.557705	0.534554	0.608401	0	0
0.97	1.00388	1.49451	0.336519	0.503162	0.516561	0.937229	-0.118803	0.093434	0.0521449	0.30318	0.164422	0	0	0.484225	-0.159228	-0.366948	0.238807	0.134326	0	0	-0.0886041	0.0543275	0.0556603	-0.286131	-0.125555	-0.381032	0.770445	0.826384	0	0	-0.140753	-0.328783	0.566023	0.532961	0.602517	0	0
0.98	1.03987	1.50299	0.290529	0.503898	0.527819	0.937392	-0.125176	0.0808146	0.0524317	0.325656	0.168872	0	0	0.454969	-0.14199	-0.32617	0.212351	0.107045	0	0	-0.0915064	0.0437269	0.0684324	-0.290014	-0.1225	-0.386355	0.766053	0.825917	0	0	-0.140609	-0.3365	0.597918	0.538235	0.55121	0	0
0.99	1.03242	1.49628	0.290965	0.50441	0.53933	0.935805	-0.121987	0.0837428	0.0564163	0.350862	0.171708	0	0	0.496018	-0.180248	-0.399303	0.328317	0.144206	0	0	-0.0847419	0.0499452	0.078632	-0.300899	-0.123934	-0.389335	0.770816	0.825869	0	0	-0.146278	-0.334353	0.594943	0.536524	0.56594	0	0
1	1.03491	1.49487	0.277665	0.505194	0.551062	0.934895	-0.118862	0.080233	0.0637567	0.380135	0.172979	0	0	0.500309	-0.193833	-0.41722	0.371726	0.15492	0	0	-0.0799858	0.0502201	0.0918146	-0.310384	-0.124343	-0.392562	0.771874	0.826682	0	0	-0.152099	-0.334867	0.600315	0.537375	0.561634	0	0
1.01	1.03206	1.49358	0.267097	0.50608	0.562893	0.933935	-0.111473	0.0754738	0.0725455	0.416642	0.174141	0	0	0.50077	-0.207542	-0.43889	0.408848	0.167708	0	0	-0.0745124	0.0504616	0.107426	-0.320669	-0.124678	-0.396672	0.774997	0.822567	0	0	-0.15851	-0.335639	0.607747	0.539087	0.559046	0	0
1.02	1.0465	1.49505	0.243506	0.506445	0.57496	0.933324	-0.105453	0.0676307	0.0765265	0.453572	0.172457	0	0	0.491987	-0.21041	-0.447335	0.425305	0.1687	0	0	-0.0709889	0.0481444	0.117132	-0.327898	-0.124482	-0.40068	0.773613	0.821502	0	0	-0.165857	-0.33628	0.61128	0.540736	0.552071	0	0
1.03	1.04582	1.49664	0.23656	0.506629	0.586992	0.932635	-0.0939365	0.058886	0.0775145	0.497556	0.168692	0	0	0.483064	-0.211048	-0.456946	0.43523	0.157941	0	0	-0.0661877	0.0451585	0.12475	-0.334566	-0.124076	-0.404667	0.771353	0.819992	0	0	-0.173776	-0.33763	0.615283	0.54334	0.545003	0	0
1.04	1.02368	1.50017	0.254796	0.506371	0.598915	0.931941	-0.0761724	0.0466278	0.0714697	0.54961	0.161568	0	0	0.474442	-0.205604	-0.46234	0.437883	0.133063	0	0	-0.0600406	0.0393094	0.128756	-0.33973	-0.121928	-0.412114	0.76681	0.824464	0	0	-0.179934	-0.346747	0.648132	0.555864	0.482641	0	0
1.05	0.993883	1.5045	0.287152	0.505473	0.610678	0.93144	-0.0558382	0.0334094	0.0603917	0.604135	0.14802	0	0	0.468993	-0.196317	-0.459477	0.441926	0.105637	0	0	-0.0545413	0.0321937	0.124058	-0.341924	-0.119945	-0.416346	0.760094	0.829632	0	0	-0.187675	-0.349997	0.652574	0.559703	0.473437	0	0
1.06	0.937295	1.50986	0.35133	0.504203	0.622144	0.931086	-0.0307995	0.0189794	0.0466658	0.663187	0.127141	0	0	0.469239	-0.185352	-0.451862	0.454597	0.0888962	0	0	-0.0490562	0.0227019	0.113065	-0.341702	-0.117595	-0.41648	0.75016	0.827928	0	0	-0.196083	-0.351515	0.642736	0.560224	0.493573	0	0
1.07	0.865333	1.51612	0.433732	0.502857	0.633326	0.930887	-0.00230688	0.00420177	0.0335383	0.726596	0.0990211	0	0	0.472715	-0.174194	-0.442851	0.475798	0.0848239	0	0	-0.0446173	0.0113526	0.0998769	-0.340074	-0.1132	-0.419423	0.738129	0.835267	0	0	-0.20243	-0.358725	0.650028	0.567706	0.47997	0	0
1.08	0.79574	1.52346	0.513877	0.501697	0.644324	0.930912	0.0278169	-0.0100737	0.0243587	0.793238	0.0633959	0	0	0.474608	-0.163213	-0.434724	0.499248	0.0857131	0	0	-0.0426309	-0.00114275	0.0872962	-0.338431	-0.10796	-0.42191	0.726601	0.844217	0	0	-0.207519	-0.36759	0.659526	0.576575	0.466856	0	0
